<svg aria-hidden="true" style="position: absolute; width: 0; height: 0; overflow: hidden;" version="1.1" xmlns="http://www.w3.org/2000/svg" xmlns:xlink="http://www.w3.org/1999/xlink">
<defs>
<symbol id="icon-cross" viewBox="0 0 32 32">
<path d="M8.533 25.333l-1.867-1.867 7.467-7.467-7.467-7.467 1.867-1.867 7.467 7.467 7.467-7.467 1.867 1.867-7.467 7.467 7.467 7.467-1.867 1.867-7.467-7.467-7.467 7.467z"></path>
</symbol>
<symbol id="icon-burger" viewBox="0 0 32 32">
<path d="M4 24v-2.667h24v2.667h-24zM4 17.333v-2.667h24v2.667h-24zM4 10.667v-2.667h24v2.667h-24z"></path>
</symbol>
<symbol id="icon-add" viewBox="0 0 32 32">
<path fill="#fff" style="fill: var(--color1, #fff)" d="M14.667 17.333h-8v-2.667h8v-8h2.667v8h8v2.667h-8v8h-2.667v-8z"></path>
</symbol>
<symbol id="icon-close" viewBox="0 0 32 32">
<path fill="#fff" style="fill: var(--color1, #fff)" d="M8.533 25.333l-1.867-1.867 7.467-7.467-7.467-7.467 1.867-1.867 7.467 7.467 7.467-7.467 1.867 1.867-7.467 7.467 7.467 7.467-1.867 1.867-7.467-7.467-7.467 7.467z"></path>
</symbol>
<symbol id="icon-five" viewBox="0 0 32 32">
<path fill="#fff" style="fill: var(--color1, #fff)" d="M25.333 6.667v18.667h-18.667v-18.667h18.667zM25.333 4h-18.667c-1.467 0-2.667 1.2-2.667 2.667v18.667c0 1.467 1.2 2.667 2.667 2.667h18.667c1.467 0 2.667-1.2 2.667-2.667v-18.667c0-1.467-1.2-2.667-2.667-2.667zM10 8c-1.067 0-2 0.933-2 2s0.933 2 2 2c1.067 0 2-0.933 2-2s-0.933-2-2-2zM22 20c-1.067 0-2 0.933-2 2s0.933 2 2 2c1.067 0 2-0.933 2-2s-0.933-2-2-2zM22 8c-1.067 0-2 0.933-2 2s0.933 2 2 2c1.067 0 2-0.933 2-2s-0.933-2-2-2zM16 14c-1.067 0-2 0.933-2 2s0.933 2 2 2c1.067 0 2-0.933 2-2s-0.933-2-2-2zM10 20c-1.067 0-2 0.933-2 2s0.933 2 2 2c1.067 0 2-0.933 2-2s-0.933-2-2-2z"></path>
</symbol>
<symbol id="icon-four" viewBox="0 0 32 32">
<path fill="#fff" style="fill: var(--color1, #fff)" d="M25.333 6.667v18.667h-18.667v-18.667h18.667zM25.333 4h-18.667c-1.467 0-2.667 1.2-2.667 2.667v18.667c0 0.707 0.281 1.386 0.781 1.886s1.178 0.781 1.886 0.781h18.667c1.48 0 2.667-1.187 2.667-2.667v-18.667c0-0.707-0.281-1.386-0.781-1.886s-1.178-0.781-1.886-0.781zM10 8c-1.107 0-2 0.893-2 2s0.893 2 2 2c1.107 0 2-0.893 2-2s-0.893-2-2-2zM22 20c-1.107 0-2 0.893-2 2s0.893 2 2 2c1.107 0 2-0.893 2-2s-0.893-2-2-2zM22 8c-1.107 0-2 0.893-2 2s0.893 2 2 2c1.107 0 2-0.893 2-2s-0.893-2-2-2zM10 20c-1.107 0-2 0.893-2 2s0.893 2 2 2c1.107 0 2-0.893 2-2s-0.893-2-2-2z"></path>
</symbol>
<symbol id="icon-three" viewBox="0 0 32 32">
<path fill="#fff" style="fill: var(--color1, #fff)" d="M25.333 6.667v18.667h-18.667v-18.667h18.667zM25.333 4h-18.667c-1.467 0-2.667 1.2-2.667 2.667v18.667c0 1.467 1.2 2.667 2.667 2.667h18.667c1.467 0 2.667-1.2 2.667-2.667v-18.667c0-1.467-1.2-2.667-2.667-2.667zM16 14c-1.067 0-2 0.933-2 2s0.933 2 2 2c1.067 0 2-0.933 2-2s-0.933-2-2-2zM10 8c-1.067 0-2 0.933-2 2s0.933 2 2 2c1.067 0 2-0.933 2-2s-0.933-2-2-2zM22 20c-1.067 0-2 0.933-2 2s0.933 2 2 2c1.067 0 2-0.933 2-2s-0.933-2-2-2z"></path>
</symbol>
<symbol id="icon-two" viewBox="0 0 32 32">
<path fill="#fff" style="fill: var(--color1, #fff)" d="M25.333 6.667v18.667h-18.667v-18.667h18.667zM25.333 4h-18.667c-1.467 0-2.667 1.2-2.667 2.667v18.667c0 0.707 0.281 1.386 0.781 1.886s1.178 0.781 1.886 0.781h18.667c1.48 0 2.667-1.187 2.667-2.667v-18.667c0-0.707-0.281-1.386-0.781-1.886s-1.178-0.781-1.886-0.781zM10 8c-1.107 0-2 0.893-2 2s0.893 2 2 2c1.107 0 2-0.893 2-2s-0.893-2-2-2zM22 20c-1.107 0-2 0.893-2 2s0.893 2 2 2c1.107 0 2-0.893 2-2s-0.893-2-2-2z"></path>
</symbol>
<symbol id="icon-one" viewBox="0 0 32 32">
<path fill="#fff" style="fill: var(--color1, #fff)" d="M25.333 6.667v18.667h-18.667v-18.667h18.667zM25.333 4h-18.667c-1.467 0-2.667 1.2-2.667 2.667v18.667c0 0.707 0.281 1.386 0.781 1.886s1.178 0.781 1.886 0.781h18.667c1.48 0 2.667-1.187 2.667-2.667v-18.667c0-0.707-0.281-1.386-0.781-1.886s-1.178-0.781-1.886-0.781zM16 14c-1.107 0-2 0.893-2 2s0.893 2 2 2c1.107 0 2-0.893 2-2s-0.893-2-2-2z"></path>
</symbol>
</defs>
</svg>
